<svg width="78" height="59" viewBox="0 0 78 59" fill="none" xmlns="http://www.w3.org/2000/svg">
<path d="M70.7778 14.9121H53.9139L52.3701 11.0382L50.3028 5.83516H27.6882L25.6208 11.0382L24.0771 14.9121H7.22222C6.825 14.9121 6.5 15.2038 6.5 15.5604V52.5165C6.5 52.8731 6.825 53.1649 7.22222 53.1649H70.7778C71.175 53.1649 71.5 52.8731 71.5 52.5165V15.5604C71.5 15.2038 71.175 14.9121 70.7778 14.9121ZM39 46.033C31.0194 46.033 24.5556 40.2302 24.5556 33.0659C24.5556 25.9017 31.0194 20.0989 39 20.0989C46.9806 20.0989 53.4444 25.9017 53.4444 33.0659C53.4444 40.2302 46.9806 46.033 39 46.033Z" fill="black" fill-opacity="0.15"/>
<path d="M39.0011 20.0989C31.0205 20.0989 24.5566 25.9017 24.5566 33.066C24.5566 40.2302 31.0205 46.033 39.0011 46.033C46.9816 46.033 53.4455 40.2302 53.4455 33.066C53.4455 25.9017 46.9816 20.0989 39.0011 20.0989ZM39.0011 40.8462C34.2164 40.8462 30.3344 37.3613 30.3344 33.066C30.3344 28.7706 34.2164 25.2857 39.0011 25.2857C43.7858 25.2857 47.6677 28.7706 47.6677 33.066C47.6677 37.3613 43.7858 40.8462 39.0011 40.8462Z" fill="black"/>
<path d="M70.7778 9.07692H58.5L55.575 1.71813C55.3729 1.21459 55.0026 0.779333 54.5146 0.471818C54.0266 0.164304 53.4448 -0.000472177 52.8486 1.01631e-06H25.1514C23.9326 1.01631e-06 22.8403 0.688874 22.434 1.71813L19.5 9.07692H7.22222C3.23194 9.07692 0 11.9783 0 15.5604V52.5165C0 56.0986 3.23194 59 7.22222 59H70.7778C74.7681 59 78 56.0986 78 52.5165V15.5604C78 11.9783 74.7681 9.07692 70.7778 9.07692ZM71.5 52.5165C71.5 52.8731 71.175 53.1648 70.7778 53.1648H7.22222C6.825 53.1648 6.5 52.8731 6.5 52.5165V15.5604C6.5 15.2038 6.825 14.9121 7.22222 14.9121H24.0771L25.6208 11.0382L27.6882 5.83517H50.3028L52.3701 11.0382L53.9139 14.9121H70.7778C71.175 14.9121 71.5 15.2038 71.5 15.5604V52.5165Z" fill="black"/>
</svg>
